Coordinates
version=1
nRows=21
nColumns=22
inDegrees=yes

Units are S.I. units (second, meters, Newtons, ...)
If the header above contains a line with 'inDegrees', this indicates whether rotational values are in degrees (yes) or radians (no).

endheader
time	pelvis_tilt	pelvis_list	pelvis_rotation	pelvis_tx	pelvis_ty	pelvis_tz	hip_flexion_r	hip_adduction_r	hip_rotation_r	knee_angle_r	ankle_angle_r	subtalar_angle_r	hip_flexion_l	hip_adduction_l	hip_rotation_l	knee_angle_l	ankle_angle_l	subtalar_angle_l	lumbar_extension	lumbar_bending	lumbar_rotation
      4.02000000	     -1.81449783	      0.32259641	    -39.34011537	      1.22194210	      0.86587118	      1.21166655	     17.23339050	      1.02711095	      2.57582291	    -29.09833153	     17.36257209	      0.43652525	     13.08532315	     -9.49123581	     -5.20700719	    -29.73895845	     17.64689675	     12.99297622	     -4.45841399	      5.90210467	     14.68235063
      4.03000000	     -1.98123225	      0.23577465	    -39.06744567	      1.22352003	      0.86545145	      1.21142952	     17.18333535	      1.08986500	      2.36346931	    -29.06747448	     17.50404236	      0.40621539	     12.95629028	     -9.54126434	     -5.25921125	    -29.36903283	     18.02608305	     12.66334447	     -4.51774954	      5.99024043	     14.53053935
      4.04000000	     -2.14061409	      0.14039204	    -38.76256921	      1.22510222	      0.86511422	      1.21113111	     17.10325847	      1.14513670	      2.12968416	    -29.00186484	     17.63147810	      0.37463201	     12.82365092	     -9.58068356	     -5.22736544	    -28.99305625	     18.37033730	     12.36295998	     -4.56918496	      6.07872209	     14.36568077
      4.05000000	     -2.28822857	      0.03594725	    -38.43214259	      1.22665138	      0.86486351	      1.21080413	     16.99623520	      1.19912624	      1.88679276	    -28.91266067	     17.74505413	      0.33711069	     12.68331574	     -9.61383975	     -5.11975522	    -28.61471436	     18.68569881	     12.09102603	     -4.61931558	      6.15604253	     14.16690425
      4.06000000	     -2.42933625	     -0.06634701	    -38.09200574	      1.22818156	      0.86470271	      1.21046378	     16.86483245	      1.24847661	      1.64829611	    -28.78125372	     17.83392921	      0.28780420	     12.53568527	     -9.63489098	     -4.93914466	    -28.22327815	     18.95341567	     11.83602250	     -4.65401340	      6.21791780	     13.97746286
      4.07000000	     -2.56121446	     -0.16824950	    -37.74807202	      1.22970267	      0.86463343	      1.21010041	     16.70971694	      1.29097694	      1.41253380	    -28.61364359	     17.90161780	      0.21862627	     12.37969939	     -9.64738803	     -4.70891504	    -27.82822537	     19.16115648	     11.58595294	     -4.67899116	      6.26949874	     13.79977381
      4.08000000	     -2.67745584	     -0.26477770	    -37.42632729	      1.23117289	      0.86465060	      1.20974388	     16.53933122	      1.33234020	      1.22553491	    -28.42404986	     17.94965065	      0.10008167	     12.20989025	     -9.65251864	     -4.46758078	    -27.43437607	     19.32571969	     11.29498063	     -4.70320076	      6.30057606	     13.64293090
      4.09000000	     -2.79817596	     -0.33462927	    -37.09337878	      1.23262759	      0.86468444	      1.20935223	     16.39458735	      1.34587961	      1.00895073	    -28.23903151	     18.00093636	      0.03428785	     12.08423547	     -9.64166260	     -4.19046682	    -27.07473567	     19.45963486	     11.20983812	     -4.68980085	      6.30647680	     13.45896712
      4.10000000	     -2.90262727	     -0.40628836	    -36.78641502	      1.23404826	      0.86481127	      1.20898122	     16.22332455	      1.35928739	      0.81742978	    -28.02319079	     18.02520019	     -0.06540636	     11.94557931	     -9.63265188	     -3.91993049	    -26.72961926	     19.53985823	     11.11463966	     -4.68256403	      6.29882580	     13.31108742
      4.11000000	     -2.99880671	     -0.45848143	    -36.51047904	      1.23540635	      0.86497787	      1.20862520	     16.06143497	      1.36093439	      0.65809078	    -27.80354030	     18.03774353	     -0.17540849	     11.82270729	     -9.61395148	     -3.66771024	    -26.41272751	     19.58833377	     11.05216724	     -4.66417360	      6.26165504	     13.18768860
      4.12000000	     -3.08678242	     -0.49563771	    -36.26096726	      1.23672277	      0.86518376	      1.20826997	     15.90267132	      1.35023208	      0.51931463	    -27.57650639	     18.03690001	     -0.29111200	     11.71462362	     -9.58695256	     -3.43546539	    -26.12551854	     19.60756962	     11.02362375	     -4.63841691	      6.20519622	     13.08795099
      4.13000000	     -3.17028206	     -0.51599854	    -36.04506147	      1.23797478	      0.86541069	      1.20792868	     15.75372657	      1.32968324	      0.40223577	    -27.34371489	     18.02346901	     -0.40080959	     11.62491315	     -9.55535765	     -3.23889368	    -25.86676317	     19.60409169	     11.02695423	     -4.60440323	      6.12737133	     13.01463335
      4.14000000	     -3.24817466	     -0.52439946	    -35.85914121	      1.23917433	      0.86565772	      1.20759076	     15.60922715	      1.30160897	      0.30614657	    -27.10451629	     17.99803834	     -0.50233713	     11.54820062	     -9.51825283	     -3.07182894	    -25.63466141	     19.58406979	     11.05377460	     -4.56646789	      6.03571312	     12.96442982
      4.15000000	     -3.32164579	     -0.52457811	    -35.70417660	      1.24031683	      0.86591222	      1.20725761	     15.46893972	      1.26899543	      0.22837872	    -26.86106983	     17.96309365	     -0.59083853	     11.48210221	     -9.48037852	     -2.94032893	    -25.42640182	     19.55415524	     11.09421786	     -4.52737678	      5.93477536	     12.93737917
      4.16000000	     -3.39503766	     -0.51725939	    -35.57793599	      1.24140211	      0.86616437	      1.20692752	     15.33420659	      1.23656954	      0.17238050	    -26.60765251	     17.91823708	     -0.65798336	     11.42510120	     -9.44123776	     -2.83538452	    -25.23356213	     19.51880870	     11.13578043	     -4.48516442	      5.82944668	     12.93072446
      4.17000000	     -3.46569347	     -0.51098110	    -35.47552822	      1.24244104	      0.86641378	      1.20658812	     15.19914865	      1.20600624	      0.12648161	    -26.35021782	     17.86613123	     -0.70470581	     11.37173648	     -9.40513523	     -2.75617147	    -25.05707686	     19.48106976	     11.16849190	     -4.44747786	      5.72844101	     12.94273963
      4.18000000	     -3.55321233	     -0.49110153	    -35.40324012	      1.24341643	      0.86660698	      1.20625182	     15.09512954	      1.18318822	      0.12271669	    -26.09698798	     17.82441266	     -0.72000343	     11.34674926	     -9.37224506	     -2.70421406	    -24.89750946	     19.46818067	     11.18033400	     -4.38632689	      5.63102967	     12.96517535
      4.19000000	     -3.59818226	     -0.52003999	    -35.32966273	      1.24440603	      0.86689295	      1.20589097	     14.91315589	      1.16513602	      0.05954950	    -25.82089750	     17.75234568	     -0.74038380	     11.25633671	     -9.35234980	     -2.64956100	    -24.73991978	     19.42284864	     11.17951618	     -4.39629783	      5.55878154	     12.99949654
      4.20000000	     -3.65947834	     -0.54085737	    -35.28196711	      1.24534431	      0.86711583	      1.20553078	     14.76025247	      1.15886793	      0.03958487	    -25.55379181	     17.69585759	     -0.73873625	     11.19026461	     -9.33891668	     -2.61814668	    -24.59829302	     19.41024125	     11.15156639	     -4.38656752	      5.49743285	     13.04168497
      4.21000000	     -3.71843383	     -0.57399284	    -35.24271686	      1.24625713	      0.86731857	      1.20514952	     14.60510128	      1.16157363	      0.01874364	    -25.29481083	     17.63913364	     -0.72156716	     11.12673504	     -9.33420794	     -2.58940856	    -24.47767421	     19.40713931	     11.09915424	     -4.38747614	      5.45446142	     13.08883547
      4.22000000	     -3.79303046	     -0.58824892	    -35.21713603	      1.24713694	      0.86744118	      1.20476503	     14.49026746	      1.16112964	      0.02397267	    -25.05653430	     17.60662468	     -0.70430972	     11.09802528	     -9.32410079	     -2.56266199	    -24.37838051	     19.42781439	     11.05890877	     -4.35833481	      5.41117841	     13.12478187
